<svg width="44" height="44" viewBox="0 0 44 44" fill="none" xmlns="http://www.w3.org/2000/svg">
<circle cx="22" cy="22" r="22" fill="#F4F4F4"/>
<rect opacity="0.01" x="10" y="10" width="24" height="24" fill="#D8D8D8"/>
<path opacity="0.8" d="M30.832 20.0481C30.9411 20.6277 31 21.2358 31 21.8694C31 26.8242 27.6827 30.3477 22.6739 30.3477C17.8821 30.3477 14 26.4656 14 21.6739C14 16.8821 17.8821 13 22.6739 13C25.0157 13 26.9725 13.8615 28.4745 15.2603L26.0295 17.7053V17.6994C25.1189 16.832 23.9646 16.387 22.6739 16.387C19.8114 16.387 17.4862 18.8045 17.4862 21.667C17.4862 24.5285 19.8124 26.9528 22.6739 26.9528C25.2711 26.9528 27.0373 25.4676 27.4018 23.4293H22.6739V20.0462L30.832 20.0481Z" fill="#0DB88E"/>
</svg>
