<svg width="44" height="44" viewBox="0 0 44 44" fill="none" xmlns="http://www.w3.org/2000/svg">
<circle cx="22" cy="22" r="22" fill="#F4F4F4"/>
<rect opacity="0.01" x="10" y="10" width="24" height="24" fill="#D8D8D8"/>
<path opacity="0.8" fill-rule="evenodd" clip-rule="evenodd" d="M13 18.3182C13 15.385 15.385 13 18.3182 13H25.6818C28.615 13 31 15.385 31 18.3182V25.6818C31 28.615 28.615 31 25.6818 31H18.3182C15.385 31 13 28.615 13 25.6818V18.3182ZM28 17.0227C28 16.4602 27.5398 16 26.9773 16C26.4148 16 25.9545 16.4602 25.9545 17.0227C25.9545 17.5852 26.4148 18.0455 26.9773 18.0455C27.5398 18.0455 28 17.5852 28 17.0227ZM22 17.5C24.4832 17.5 26.5 19.5168 26.5 22C26.5 24.4832 24.4832 26.5 22 26.5C19.5168 26.5 17.5 24.4832 17.5 22C17.5 19.5168 19.5168 17.5 22 17.5ZM19.1591 22C19.1591 20.4343 20.4343 19.1591 22 19.1591C23.5657 19.1591 24.8409 20.4343 24.8409 22C24.8409 23.5657 23.5657 24.8409 22 24.8409C20.4343 24.8409 19.1591 23.5657 19.1591 22Z" fill="#0DB88E"/>
</svg>
