<svg width="156" height="45" viewBox="0 0 156 45" fill="none" xmlns="http://www.w3.org/2000/svg">
<path d="M1 0.901023V15.2355H4.50661V0.901023H1ZM9.27559 0.901023L3.52476 7.72014L9.43589 15.2355H13.5436L7.55235 7.61775L13.2431 0.901023H9.27559Z" fill="#2F80ED"/>
<path d="M27.354 0.901023H15.8323V9.37884C15.8323 9.8157 15.7856 10.2184 15.6921 10.587C15.5985 10.9556 15.4583 11.2696 15.2713 11.529C15.0976 11.7747 14.8772 11.9659 14.61 12.1024C14.3562 12.2389 14.0623 12.3072 13.7284 12.3072V15.2355C15.0241 15.2355 16.0795 15.0171 16.8943 14.5802C17.7092 14.1297 18.3036 13.4539 18.6777 12.5529C19.0651 11.6382 19.2588 10.5119 19.2588 9.17406V3.99317H23.9075V15.2355H27.354V0.901023Z" fill="#2F80ED"/>
<path d="M43.2746 4.50512L43.3748 0.1843L30.5306 11.6314L30.4304 15.9522L43.2746 4.50512ZM33.6766 0.901023H30.4304V15.9522L33.6766 12.5529V0.901023ZM43.3748 0.1843L40.1087 3.70648V15.2355H43.3748V0.1843Z" fill="#2F80ED"/>
<path d="M47.2811 9.23549H57.8811V6.12287H47.2811V9.23549ZM55.7571 0.901023V15.2355H59.1435V0.901023H55.7571ZM46.3393 0.901023V15.2355H49.7257V0.901023H46.3393Z" fill="#2F80ED"/>
<path d="M74.9359 4.50512L75.036 0.1843L62.1918 11.6314L62.0917 15.9522L74.9359 4.50512ZM65.3378 0.901023H62.0917V15.9522L65.3378 12.5529V0.901023ZM75.036 0.1843L71.7699 3.70648V15.2355H75.036V0.1843Z" fill="#2F80ED"/>
<path d="M78.0005 0.901023V15.2355H81.5071V0.901023H78.0005ZM86.2761 0.901023L80.5253 7.72014L86.4364 15.2355H90.5442L84.5529 7.61775L90.2436 0.901023H86.2761Z" fill="#2F80ED"/>
<path d="M94.2155 12.471H101.629L101.409 9.82935H94.4559L94.2155 12.471ZM97.8824 6.16382L99.8661 10.8123L99.7459 11.6928L101.429 15.2355H105.276L97.8824 0L90.5085 15.2355H94.3357L96.079 11.5495L95.9187 10.7918L97.8824 6.16382Z" fill="#2F80ED"/>
<path d="M114.958 12.471H122.372L122.151 9.82935H115.198L114.958 12.471ZM118.625 6.16382L120.608 10.8123L120.488 11.6928L122.171 15.2355H126.019L118.625 0L111.251 15.2355H115.078L116.821 11.5495L116.661 10.7918L118.625 6.16382Z" fill="#2F80ED"/>
<path d="M129.767 8.06826C129.767 7.18089 129.961 6.42321 130.348 5.79522C130.736 5.16723 131.243 4.68942 131.871 4.36177C132.512 4.03413 133.214 3.87031 133.975 3.87031C134.643 3.87031 135.231 3.95904 135.738 4.13652C136.246 4.30034 136.7 4.53242 137.101 4.83276C137.502 5.11945 137.856 5.42662 138.163 5.75427V2.0273C137.602 1.57679 136.987 1.22184 136.319 0.962457C135.652 0.703071 134.803 0.573378 133.775 0.573378C132.653 0.573378 131.617 0.750853 130.669 1.1058C129.72 1.46075 128.906 1.9727 128.224 2.64164C127.543 3.31058 127.015 4.10239 126.641 5.01706C126.267 5.93174 126.08 6.94881 126.08 8.06826C126.08 9.18771 126.267 10.2048 126.641 11.1195C127.015 12.0341 127.543 12.8259 128.224 13.4949C128.906 14.1638 129.72 14.6758 130.669 15.0307C131.617 15.3857 132.653 15.5631 133.775 15.5631C134.803 15.5631 135.652 15.4334 136.319 15.1741C136.987 14.9147 137.602 14.5597 138.163 14.1092V10.3823C137.856 10.7099 137.502 11.0171 137.101 11.3038C136.7 11.5904 136.246 11.8225 135.738 12C135.231 12.1775 134.643 12.2662 133.975 12.2662C133.214 12.2662 132.512 12.1024 131.871 11.7747C131.243 11.4471 130.736 10.9693 130.348 10.3413C129.961 9.69966 129.767 8.94198 129.767 8.06826Z" fill="#2F80ED"/>
<path d="M144.378 12.1433V0.901023H140.932V15.2355H152.754V18H156V12.1433H153.796V0.901023H150.349V12.1433H144.378Z" fill="#2F80ED"/>
<path d="M0 26H152V27H0V26Z" fill="#2F80ED"/>
<path d="M1.42327 40.7H5.1318L4.83111 39.9H1.72396L1.42327 40.7ZM3.25749 37.38L4.46026 40.2L4.54044 40.4L5.56279 42.8H6.51498L3.25749 35.45L0 42.8H0.952189L1.99459 40.34L2.07477 40.16L3.25749 37.38Z" fill="#2F80ED"/>
<path d="M11.6985 42.8H12.6005L11.3978 37.85L10.9467 39.15L11.6985 42.8ZM9.29293 42.11L9.59362 43.11L11.498 39.45L11.3978 37.85L9.29293 42.11ZM9.59362 43.11L9.89431 42.11L7.81954 37.85L7.71931 39.45L9.59362 43.11ZM6.61678 42.8H7.51885L8.27058 39.15L7.81954 37.85L6.61678 42.8Z" fill="#2F80ED"/>
<path d="M15.3912 38.85C15.6919 38.85 15.9591 38.92 16.193 39.06C16.4336 39.2 16.6207 39.3967 16.7543 39.65C16.8946 39.8967 16.9648 40.18 16.9648 40.5C16.9648 40.82 16.8946 41.1033 16.7543 41.35C16.6207 41.5967 16.4336 41.7933 16.193 41.94C15.9591 42.08 15.6919 42.15 15.3912 42.15C15.0905 42.15 14.8199 42.08 14.5793 41.94C14.3454 41.7933 14.1583 41.5967 14.018 41.35C13.8777 41.1033 13.8075 40.82 13.8075 40.5L13.0057 39.9C13.0057 40.56 13.1093 41.1133 13.3164 41.56C13.5302 42.0067 13.8176 42.3433 14.1784 42.57C14.5392 42.79 14.9435 42.9 15.3912 42.9C15.8455 42.9 16.2498 42.7967 16.604 42.59C16.9648 42.3833 17.2488 42.1 17.4559 41.74C17.6697 41.3733 17.7767 40.96 17.7767 40.5C17.7767 40.0333 17.6697 39.62 17.4559 39.26C17.2488 38.9 16.9648 38.6167 16.604 38.41C16.2498 38.2033 15.8455 38.1 15.3912 38.1V38.85ZM13.4467 40.5H13.8075C13.8075 40.2333 13.8543 40 13.9479 39.8C14.0481 39.5933 14.175 39.42 14.3287 39.28C14.4891 39.14 14.6628 39.0333 14.8499 38.96C15.037 38.8867 15.2174 38.85 15.3912 38.85V38.1C15.1038 38.1 14.8399 38.1567 14.5994 38.27C14.3655 38.3767 14.1617 38.5333 13.9879 38.74C13.8142 38.9467 13.6806 39.2 13.587 39.5C13.4935 39.7933 13.4467 40.1267 13.4467 40.5ZM13.0057 39.9L13.7073 40.43V39.4C13.7073 39.0667 13.7507 38.7333 13.8376 38.4C13.9245 38.0667 14.0815 37.7667 14.3087 37.5C14.5426 37.2267 14.8666 37.0233 15.2809 36.89C15.6484 36.77 15.9759 36.62 16.2632 36.44C16.5572 36.26 16.7944 36.05 16.9748 35.81C17.1552 35.5633 17.2621 35.2933 17.2956 35H16.5037C16.457 35.24 16.32 35.47 16.0928 35.69C15.8723 35.9033 15.5348 36.0867 15.0805 36.24C14.5459 36.4267 14.1249 36.6867 13.8176 37.02C13.5169 37.3533 13.3064 37.76 13.1861 38.24C13.0658 38.72 13.0057 39.2733 13.0057 39.9Z" fill="#2F80ED"/>
<path d="M22.5366 38.2H21.6345L20.2112 41.76L20.542 41.8L19.0786 38.2H18.1264L19.8905 42.15L18.6276 45H19.5297L22.5366 38.2Z" fill="#2F80ED"/>
<path d="M27.3319 38.2H23.3728V41.2C23.3728 41.5267 23.2993 41.7533 23.1523 41.88C23.012 42.0067 22.8416 42.07 22.6411 42.07V42.8C22.9886 42.8 23.2759 42.7433 23.5031 42.63C23.7303 42.51 23.8973 42.3333 24.0043 42.1C24.1179 41.86 24.1746 41.56 24.1746 41.2V38.95H26.5301V42.8H27.3319V38.2Z" fill="#2F80ED"/>
<path d="M29.2425 41.45C29.2425 41.2633 29.2859 41.1033 29.3728 40.97C29.4596 40.8367 29.5899 40.7333 29.7637 40.66C29.9441 40.5867 30.1679 40.55 30.4352 40.55C30.7292 40.55 30.9932 40.59 31.227 40.67C31.4609 40.7433 31.6914 40.86 31.9186 41.02V40.55C31.8719 40.49 31.785 40.4133 31.658 40.32C31.5311 40.22 31.3607 40.1333 31.1469 40.06C30.9397 39.98 30.6891 39.94 30.3951 39.94C29.9942 39.94 29.6467 40.0033 29.3527 40.13C29.0587 40.25 28.8315 40.4233 28.6712 40.65C28.5108 40.8767 28.4306 41.1533 28.4306 41.48C28.4306 41.7933 28.5008 42.0567 28.6411 42.27C28.7881 42.4767 28.9819 42.6333 29.2224 42.74C29.463 42.8467 29.7269 42.9 30.0142 42.9C30.335 42.9 30.6257 42.8467 30.8863 42.74C31.1469 42.6267 31.354 42.4667 31.5077 42.26C31.6681 42.0467 31.7482 41.7933 31.7482 41.5L31.5879 41C31.5879 41.2867 31.5277 41.5167 31.4075 41.69C31.2939 41.8633 31.1335 41.99 30.9263 42.07C30.7192 42.15 30.482 42.19 30.2147 42.19C30.0343 42.19 29.8706 42.1633 29.7236 42.11C29.5766 42.05 29.4596 41.9667 29.3728 41.86C29.2859 41.7467 29.2425 41.61 29.2425 41.45ZM29.2425 39.28C29.316 39.2267 29.4162 39.1633 29.5432 39.09C29.6768 39.01 29.8338 38.9433 30.0142 38.89C30.1947 38.83 30.3951 38.8 30.6156 38.8C30.8695 38.8 31.0934 38.86 31.2872 38.98C31.4876 39.0933 31.5879 39.2667 31.5879 39.5V42.8H32.3897V39.5C32.3897 39.2 32.3129 38.9467 32.1592 38.74C32.0122 38.5333 31.805 38.3767 31.5378 38.27C31.2772 38.1567 30.9698 38.1 30.6156 38.1C30.2013 38.1 29.8472 38.1633 29.5532 38.29C29.2592 38.4167 29.0253 38.5433 28.8516 38.67L29.2425 39.28Z" fill="#2F80ED"/>
<path d="M33.0447 38.2V38.95H35.751V38.2H33.0447ZM33.9969 38.4V42.8H34.7988V38.4H33.9969Z" fill="#2F80ED"/>
<path d="M36.0078 40.5C36.0078 40.96 36.1114 41.3733 36.3185 41.74C36.5323 42.1 36.8197 42.3833 37.1805 42.59C37.5413 42.7967 37.9456 42.9 38.3933 42.9C38.8477 42.9 39.2519 42.7967 39.6061 42.59C39.9669 42.3833 40.2509 42.1 40.458 41.74C40.6719 41.3733 40.7788 40.96 40.7788 40.5C40.7788 40.0333 40.6719 39.62 40.458 39.26C40.2509 38.9 39.9669 38.6167 39.6061 38.41C39.2519 38.2033 38.8477 38.1 38.3933 38.1C37.9456 38.1 37.5413 38.2033 37.1805 38.41C36.8197 38.6167 36.5323 38.9 36.3185 39.26C36.1114 39.62 36.0078 40.0333 36.0078 40.5ZM36.8197 40.5C36.8197 40.18 36.8865 39.8967 37.0201 39.65C37.1604 39.3967 37.3475 39.2 37.5814 39.06C37.822 38.92 38.0926 38.85 38.3933 38.85C38.694 38.85 38.9613 38.92 39.1951 39.06C39.4357 39.2 39.6228 39.3967 39.7564 39.65C39.8967 39.8967 39.9669 40.18 39.9669 40.5C39.9669 40.82 39.8967 41.1033 39.7564 41.35C39.6228 41.5967 39.4357 41.7933 39.1951 41.94C38.9613 42.08 38.694 42.15 38.3933 42.15C38.0926 42.15 37.822 42.08 37.5814 41.94C37.3475 41.7933 37.1604 41.5967 37.0201 41.35C36.8865 41.1033 36.8197 40.82 36.8197 40.5Z" fill="#2F80ED"/>
<path d="M42.632 45V38.2H41.8302V45H42.632ZM46.4909 40.5C46.4909 40 46.3873 39.5733 46.1802 39.22C45.973 38.86 45.6957 38.5833 45.3483 38.39C45.0075 38.1967 44.6266 38.1 44.2056 38.1C43.8248 38.1 43.4873 38.1967 43.1933 38.39C42.906 38.5833 42.6788 38.86 42.5117 39.22C42.3514 39.5733 42.2712 40 42.2712 40.5C42.2712 40.9933 42.3514 41.42 42.5117 41.78C42.6788 42.14 42.906 42.4167 43.1933 42.61C43.4873 42.8033 43.8248 42.9 44.2056 42.9C44.6266 42.9 45.0075 42.8033 45.3483 42.61C45.6957 42.4167 45.973 42.14 46.1802 41.78C46.3873 41.42 46.4909 40.9933 46.4909 40.5ZM45.679 40.5C45.679 40.8533 45.6055 41.1533 45.4585 41.4C45.3182 41.6467 45.1278 41.8333 44.8872 41.96C44.6533 42.0867 44.3927 42.15 44.1054 42.15C43.8715 42.15 43.641 42.0867 43.4138 41.96C43.1866 41.8333 42.9995 41.6467 42.8525 41.4C42.7055 41.1533 42.632 40.8533 42.632 40.5C42.632 40.1467 42.7055 39.8467 42.8525 39.6C42.9995 39.3533 43.1866 39.1667 43.4138 39.04C43.641 38.9133 43.8715 38.85 44.1054 38.85C44.3927 38.85 44.6533 38.9133 44.8872 39.04C45.1278 39.1667 45.3182 39.3533 45.4585 39.6C45.6055 39.8467 45.679 40.1467 45.679 40.5Z" fill="#2F80ED"/>
<path d="M48.0676 40.75H51.4755V40H48.0676V40.75ZM50.9543 38.2V42.8H51.7561V38.2H50.9543ZM47.5966 38.2V42.8H48.3984V38.2H47.5966Z" fill="#2F80ED"/>
<path d="M52.863 40.5C52.863 40.96 52.9665 41.3733 53.1737 41.74C53.3875 42.1 53.6748 42.3833 54.0357 42.59C54.3965 42.7967 54.8007 42.9 55.2484 42.9C55.7028 42.9 56.1071 42.7967 56.4612 42.59C56.8221 42.3833 57.106 42.1 57.3132 41.74C57.527 41.3733 57.6339 40.96 57.6339 40.5C57.6339 40.0333 57.527 39.62 57.3132 39.26C57.106 38.9 56.8221 38.6167 56.4612 38.41C56.1071 38.2033 55.7028 38.1 55.2484 38.1C54.8007 38.1 54.3965 38.2033 54.0357 38.41C53.6748 38.6167 53.3875 38.9 53.1737 39.26C52.9665 39.62 52.863 40.0333 52.863 40.5ZM53.6748 40.5C53.6748 40.18 53.7416 39.8967 53.8753 39.65C54.0156 39.3967 54.2027 39.2 54.4366 39.06C54.6771 38.92 54.9478 38.85 55.2484 38.85C55.5491 38.85 55.8164 38.92 56.0503 39.06C56.2908 39.2 56.4779 39.3967 56.6116 39.65C56.7519 39.8967 56.8221 40.18 56.8221 40.5C56.8221 40.82 56.7519 41.1033 56.6116 41.35C56.4779 41.5967 56.2908 41.7933 56.0503 41.94C55.8164 42.08 55.5491 42.15 55.2484 42.15C54.9478 42.15 54.6771 42.08 54.4366 41.94C54.2027 41.7933 54.0156 41.5967 53.8753 41.35C53.7416 41.1033 53.6748 40.82 53.6748 40.5Z" fill="#2F80ED"/>
<path d="M58.0338 40.8H60.0384V40.05H58.0338V40.8Z" fill="#2F80ED"/>
<path d="M61.2007 40.5C61.2007 40.18 61.2675 39.8967 61.4012 39.65C61.5415 39.3967 61.7286 39.2 61.9625 39.06C62.203 38.92 62.4737 38.85 62.7743 38.85C63.0216 38.85 63.2521 38.89 63.4659 38.97C63.6864 39.0433 63.8769 39.1433 64.0372 39.27C64.1976 39.3967 64.3112 39.5367 64.378 39.69V38.69C64.2177 38.5033 63.9871 38.36 63.6864 38.26C63.3924 38.1533 63.0884 38.1 62.7743 38.1C62.3266 38.1 61.9224 38.2033 61.5616 38.41C61.2007 38.6167 60.9134 38.9 60.6996 39.26C60.4924 39.62 60.3889 40.0333 60.3889 40.5C60.3889 40.96 60.4924 41.3733 60.6996 41.74C60.9134 42.1 61.2007 42.3833 61.5616 42.59C61.9224 42.7967 62.3266 42.9 62.7743 42.9C63.0884 42.9 63.3924 42.85 63.6864 42.75C63.9871 42.6433 64.2177 42.4967 64.378 42.31V41.31C64.3112 41.4567 64.1976 41.5967 64.0372 41.73C63.8769 41.8567 63.6864 41.96 63.4659 42.04C63.2521 42.1133 63.0216 42.15 62.7743 42.15C62.4737 42.15 62.203 42.08 61.9625 41.94C61.7286 41.7933 61.5415 41.5967 61.4012 41.35C61.2675 41.1033 61.2007 40.82 61.2007 40.5Z" fill="#2F80ED"/>
<path d="M65.7365 40.7H69.6756C69.6823 40.66 69.6856 40.62 69.6856 40.58C69.6856 40.54 69.6856 40.5 69.6856 40.46C69.6856 39.9733 69.5954 39.5567 69.415 39.21C69.2346 38.8567 68.9807 38.5833 68.6532 38.39C68.3258 38.1967 67.9449 38.1 67.5106 38.1C67.1164 38.1 66.7589 38.18 66.4381 38.34C66.1241 38.5 65.8668 38.7233 65.6664 39.01C65.4659 39.2967 65.3323 39.63 65.2655 40.01C65.2521 40.09 65.2421 40.17 65.2354 40.25C65.2287 40.33 65.2254 40.4133 65.2254 40.5C65.2254 40.96 65.3189 41.3733 65.506 41.74C65.6998 42.1 65.9604 42.3833 66.2878 42.59C66.6219 42.7967 66.9961 42.9 67.4104 42.9C67.8113 42.9 68.1454 42.8533 68.4127 42.76C68.68 42.66 68.9072 42.5233 69.0943 42.35C69.2814 42.17 69.4518 41.9633 69.6054 41.73L68.9539 41.32C68.8537 41.4867 68.7334 41.6333 68.5931 41.76C68.4528 41.88 68.2924 41.9767 68.112 42.05C67.9383 42.1167 67.7378 42.15 67.5106 42.15C67.2099 42.15 66.9493 42.0867 66.7288 41.96C66.5083 41.8333 66.3379 41.6467 66.2176 41.4C66.0974 41.1533 66.0372 40.8533 66.0372 40.5L66.0573 40.2C66.0573 39.9133 66.1208 39.6667 66.2477 39.46C66.3814 39.2467 66.5584 39.0833 66.7789 38.97C66.9994 38.8567 67.2433 38.8 67.5106 38.8C67.7779 38.8 68.0018 38.8533 68.1822 38.96C68.3693 39.06 68.5129 39.2033 68.6132 39.39C68.7201 39.57 68.7869 39.78 68.8136 40.02H65.7365V40.7Z" fill="#2F80ED"/>
<path d="M75.1647 42.8H76.0668L74.864 37.85L74.413 39.15L75.1647 42.8ZM72.7592 42.11L73.0599 43.11L74.9642 39.45L74.864 37.85L72.7592 42.11ZM73.0599 43.11L73.3606 42.11L71.2858 37.85L71.1856 39.45L73.0599 43.11ZM70.083 42.8H70.9851L71.7368 39.15L71.2858 37.85L70.083 42.8Z" fill="#2F80ED"/>
<path d="M76.9831 40.7H80.9222C80.9288 40.66 80.9322 40.62 80.9322 40.58C80.9322 40.54 80.9322 40.5 80.9322 40.46C80.9322 39.9733 80.842 39.5567 80.6616 39.21C80.4811 38.8567 80.2272 38.5833 79.8998 38.39C79.5724 38.1967 79.1915 38.1 78.7572 38.1C78.3629 38.1 78.0055 38.18 77.6847 38.34C77.3707 38.5 77.1134 38.7233 76.9129 39.01C76.7125 39.2967 76.5788 39.63 76.512 40.01C76.4987 40.09 76.4886 40.17 76.4819 40.25C76.4753 40.33 76.4719 40.4133 76.4719 40.5C76.4719 40.96 76.5655 41.3733 76.7526 41.74C76.9464 42.1 77.207 42.3833 77.5344 42.59C77.8685 42.7967 78.2427 42.9 78.657 42.9C79.0579 42.9 79.392 42.8533 79.6593 42.76C79.9265 42.66 80.1537 42.5233 80.3408 42.35C80.5279 42.17 80.6983 41.9633 80.852 41.73L80.2005 41.32C80.1003 41.4867 79.98 41.6333 79.8397 41.76C79.6993 41.88 79.539 41.9767 79.3586 42.05C79.1848 42.1167 78.9844 42.15 78.7572 42.15C78.4565 42.15 78.1959 42.0867 77.9754 41.96C77.7549 41.8333 77.5845 41.6467 77.4642 41.4C77.3439 41.1533 77.2838 40.8533 77.2838 40.5L77.3038 40.2C77.3038 39.9133 77.3673 39.6667 77.4943 39.46C77.6279 39.2467 77.805 39.0833 78.0255 38.97C78.246 38.8567 78.4899 38.8 78.7572 38.8C79.0245 38.8 79.2483 38.8533 79.4287 38.96C79.6158 39.06 79.7595 39.2033 79.8597 39.39C79.9666 39.57 80.0335 39.78 80.0602 40.02H76.9831V40.7Z" fill="#2F80ED"/>
<path d="M85.8901 39L85.9402 37.85L82.1314 42L82.0813 43.15L85.8901 39ZM82.8832 38.2H82.0813V43.15L82.8832 42.05V38.2ZM85.9402 37.85L85.1383 38.95V42.8H85.9402V37.85ZM82.4522 35.85C82.4522 36.0767 82.509 36.3 82.6226 36.52C82.7428 36.7333 82.9199 36.91 83.1538 37.05C83.3943 37.1833 83.6883 37.25 84.0358 37.25C84.39 37.25 84.684 37.1833 84.9178 37.05C85.1517 36.91 85.3254 36.7333 85.439 36.52C85.5593 36.3 85.6194 36.0767 85.6194 35.85H84.9078C84.9078 35.9367 84.8844 36.04 84.8377 36.16C84.7909 36.2733 84.704 36.3767 84.577 36.47C84.4501 36.5567 84.2697 36.6 84.0358 36.6C83.8019 36.6 83.6215 36.5567 83.4946 36.47C83.3676 36.3767 83.2807 36.2733 83.234 36.16C83.1872 36.04 83.1638 35.9367 83.1638 35.85H82.4522Z" fill="#2F80ED"/>
<path d="M87.9641 40.75H91.3719V40H87.9641V40.75ZM90.8507 38.2V42.8H91.6525V38.2H90.8507ZM87.493 38.2V42.8H88.2948V38.2H87.493Z" fill="#2F80ED"/>
<path d="M97.3199 38.2V42.8H98.1217V38.2H97.3199ZM93.1603 38.2V42.8H93.9622V38.2H93.1603ZM93.6314 40.64H95.0647C95.3587 40.64 95.5792 40.7033 95.7262 40.83C95.8732 40.9567 95.9467 41.1367 95.9467 41.37C95.9467 41.5233 95.9133 41.6567 95.8465 41.77C95.7797 41.8767 95.6794 41.96 95.5458 42.02C95.4188 42.0733 95.2585 42.1 95.0647 42.1H93.6314V42.8H95.0647C95.3854 42.8 95.6727 42.75 95.9267 42.65C96.1806 42.55 96.381 42.3933 96.528 42.18C96.675 41.9667 96.7486 41.6967 96.7486 41.37C96.7486 40.8767 96.5848 40.5167 96.2574 40.29C95.9367 40.0567 95.5391 39.94 95.0647 39.94H93.6314V40.64Z" fill="#2F80ED"/>
<path d="M103.479 39L103.529 37.85L99.7207 42L99.6706 43.15L103.479 39ZM100.472 38.2H99.6706V43.15L100.472 42.05V38.2ZM103.529 37.85L102.728 38.95V42.8H103.529V37.85ZM100.041 35.85C100.041 36.0767 100.098 36.3 100.212 36.52C100.332 36.7333 100.509 36.91 100.743 37.05C100.984 37.1833 101.278 37.25 101.625 37.25C101.979 37.25 102.273 37.1833 102.507 37.05C102.741 36.91 102.915 36.7333 103.028 36.52C103.149 36.3 103.209 36.0767 103.209 35.85H102.497C102.497 35.9367 102.474 36.04 102.427 36.16C102.38 36.2733 102.293 36.3767 102.166 36.47C102.039 36.5567 101.859 36.6 101.625 36.6C101.391 36.6 101.211 36.5567 101.084 36.47C100.957 36.3767 100.87 36.2733 100.823 36.16C100.776 36.04 100.753 35.9367 100.753 35.85H100.041Z" fill="#2F80ED"/>
<path d="M111.846 42.05V38.2H111.044V42.05H108.889V38.2H108.087V42.8H111.946V43.7H112.648V42.05H111.846Z" fill="#2F80ED"/>
<path d="M113.865 40.7H117.804C117.811 40.66 117.814 40.62 117.814 40.58C117.814 40.54 117.814 40.5 117.814 40.46C117.814 39.9733 117.724 39.5567 117.543 39.21C117.363 38.8567 117.109 38.5833 116.781 38.39C116.454 38.1967 116.073 38.1 115.639 38.1C115.245 38.1 114.887 38.18 114.566 38.34C114.252 38.5 113.995 38.7233 113.795 39.01C113.594 39.2967 113.461 39.63 113.394 40.01C113.38 40.09 113.37 40.17 113.364 40.25C113.357 40.33 113.354 40.4133 113.354 40.5C113.354 40.96 113.447 41.3733 113.634 41.74C113.828 42.1 114.089 42.3833 114.416 42.59C114.75 42.7967 115.124 42.9 115.539 42.9C115.94 42.9 116.274 42.8533 116.541 42.76C116.808 42.66 117.035 42.5233 117.223 42.35C117.41 42.17 117.58 41.9633 117.734 41.73L117.082 41.32C116.982 41.4867 116.862 41.6333 116.721 41.76C116.581 41.88 116.421 41.9767 116.24 42.05C116.067 42.1167 115.866 42.15 115.639 42.15C115.338 42.15 115.078 42.0867 114.857 41.96C114.637 41.8333 114.466 41.6467 114.346 41.4C114.226 41.1533 114.165 40.8533 114.165 40.5L114.186 40.2C114.186 39.9133 114.249 39.6667 114.376 39.46C114.51 39.2467 114.687 39.0833 114.907 38.97C115.128 38.8567 115.372 38.8 115.639 38.8C115.906 38.8 116.13 38.8533 116.31 38.96C116.498 39.06 116.641 39.2033 116.741 39.39C116.848 39.57 116.915 39.78 116.942 40.02H113.865V40.7Z" fill="#2F80ED"/>
<path d="M119.384 40.75H122.792V40H119.384V40.75ZM122.271 38.2V42.8H123.072V38.2H122.271ZM118.913 38.2V42.8H119.715V38.2H118.913Z" fill="#2F80ED"/>
<path d="M123.879 38.2V38.95H126.585V38.2H123.879ZM124.831 38.4V42.8H125.633V38.4H124.831Z" fill="#2F80ED"/>
<path d="M128.141 45V38.2H127.339V45H128.141ZM132 40.5C132 40 131.896 39.5733 131.689 39.22C131.482 38.86 131.205 38.5833 130.857 38.39C130.517 38.1967 130.136 38.1 129.715 38.1C129.334 38.1 128.996 38.1967 128.702 38.39C128.415 38.5833 128.188 38.86 128.021 39.22C127.86 39.5733 127.78 40 127.78 40.5C127.78 40.9933 127.86 41.42 128.021 41.78C128.188 42.14 128.415 42.4167 128.702 42.61C128.996 42.8033 129.334 42.9 129.715 42.9C130.136 42.9 130.517 42.8033 130.857 42.61C131.205 42.4167 131.482 42.14 131.689 41.78C131.896 41.42 132 40.9933 132 40.5ZM131.188 40.5C131.188 40.8533 131.115 41.1533 130.968 41.4C130.827 41.6467 130.637 41.8333 130.396 41.96C130.162 42.0867 129.902 42.15 129.615 42.15C129.381 42.15 129.15 42.0867 128.923 41.96C128.696 41.8333 128.509 41.6467 128.362 41.4C128.215 41.1533 128.141 40.8533 128.141 40.5C128.141 40.1467 128.215 39.8467 128.362 39.6C128.509 39.3533 128.696 39.1667 128.923 39.04C129.15 38.9133 129.381 38.85 129.615 38.85C129.902 38.85 130.162 38.9133 130.396 39.04C130.637 39.1667 130.827 39.3533 130.968 39.6C131.115 39.8467 131.188 40.1467 131.188 40.5Z" fill="#2F80ED"/>
</svg>
