<svg width="44" height="44" viewBox="0 0 44 44" fill="none" xmlns="http://www.w3.org/2000/svg">
<circle cx="22" cy="22" r="22" fill="#F4F4F4"/>
<rect opacity="0.01" x="10" y="10" width="24" height="24" fill="#D8D8D8"/>
<path opacity="0.8" d="M31 16.7756C30.3278 17.0818 29.6126 17.2829 28.8794 17.3719C29.6557 16.8927 30.2325 16.1488 30.5031 15.2775C29.7803 15.7175 28.9863 16.0281 28.1567 16.1951C27.4851 15.4594 26.5247 15 25.4616 15C23.4235 15 21.7701 16.6954 21.7701 18.7868C21.7701 19.0834 21.802 19.3717 21.8654 19.6493C18.796 19.4906 16.0754 17.985 14.2529 15.6911C13.9241 16.2724 13.752 16.9291 13.7534 17.5969C13.7534 18.9101 14.4051 20.0693 15.3959 20.7488C14.8081 20.7293 14.2338 20.5671 13.7226 20.2762V20.3228C13.7226 22.158 14.9957 23.6891 16.6862 24.0356C16.3697 24.1254 16.0421 24.1703 15.7131 24.1691C15.4754 24.1691 15.2429 24.1463 15.0179 24.1016C15.4881 25.6054 16.8509 26.7011 18.4675 26.7304C17.2038 27.7466 15.6108 28.3523 13.8813 28.3523C13.5831 28.3523 13.2887 28.3346 13 28.3001C14.6346 29.3726 16.5764 30 18.661 30C25.4541 30 29.1681 24.2306 29.1681 19.2263C29.1681 19.0616 29.1647 18.897 29.1584 18.7357C29.8842 18.1974 30.5079 17.5336 31 16.7756Z" fill="#0DB88E"/>
</svg>
