<svg width="44" height="44" viewBox="0 0 44 44" fill="none" xmlns="http://www.w3.org/2000/svg">
<circle cx="22" cy="22" r="22" fill="#F4F4F4"/>
<rect opacity="0.01" x="10" y="10" width="24" height="24" fill="#D8D8D8"/>
<path opacity="0.8" d="M21.786 27.3634H22.9811C22.9811 27.3634 23.3424 27.3234 23.5261 27.1247C23.6961 26.9422 23.6899 26.5996 23.6899 26.5996C23.6899 26.5996 23.6661 24.9958 24.4112 24.7595C25.145 24.527 26.0876 26.3096 27.0864 26.9959C27.8414 27.5147 28.4152 27.4009 28.4152 27.4009L31.0867 27.3634C31.0867 27.3634 32.4843 27.2772 31.8217 26.1784C31.768 26.0883 31.4355 25.3658 29.8353 23.8807C28.1602 22.3256 28.3852 22.5781 30.4029 19.8891C31.6317 18.2515 32.123 17.2514 31.9692 16.8239C31.823 16.4164 30.9192 16.5239 30.9192 16.5239L27.9139 16.5414C27.9139 16.5414 27.6914 16.5114 27.5252 16.6102C27.3639 16.7077 27.2601 16.9327 27.2601 16.9327C27.2601 16.9327 26.7839 18.2003 26.1488 19.2778C24.81 21.5518 24.2737 21.6718 24.0549 21.5305C23.5461 21.2017 23.6736 20.2079 23.6736 19.5029C23.6736 17.299 24.0074 16.3801 23.0223 16.1426C22.6948 16.0639 22.4548 16.0114 21.6185 16.0026C20.5459 15.9914 19.6371 16.0064 19.1233 16.2576C18.7808 16.4251 18.517 16.7989 18.6783 16.8202C18.877 16.8464 19.3271 16.9414 19.5658 17.2664C19.8746 17.6852 19.8634 18.6278 19.8634 18.6278C19.8634 18.6278 20.0409 21.2217 19.4496 21.5443C19.0433 21.7655 18.487 21.3142 17.2932 19.2503C16.6819 18.194 16.2193 17.0252 16.2193 17.0252C16.2193 17.0252 16.1306 16.8077 15.9718 16.6914C15.7793 16.5501 15.5093 16.5051 15.5093 16.5051L12.6516 16.5226C12.6516 16.5226 12.2228 16.5351 12.0653 16.7214C11.9253 16.8877 12.054 17.2302 12.054 17.2302C12.054 17.2302 14.2917 22.4643 16.8244 25.1033C19.1483 27.5222 21.786 27.3634 21.786 27.3634Z" fill="#0DB88E"/>
</svg>
