<svg width="24" height="23" viewBox="0 0 24 23" fill="none" xmlns="http://www.w3.org/2000/svg">
<path d="M22.1598 17.2428V10.1356C22.1598 8.84058 21.6608 7.54555 20.6628 6.54345C19.6647 5.55676 18.3548 5.06342 17.0292 5.06342H7.95322L6.5653 1.37877C6.47173 1.1321 6.3002 0.900841 6.06628 0.746671C5.83236 0.577085 5.55166 0.5 5.28655 0.5H0.608187C0.452242 0.5 0.296296 0.561668 0.187135 0.669587C0.0623782 0.792922 0 0.931675 0 1.08584V1.62544C0 1.77961 0.0623782 1.93378 0.17154 2.0417C0.296296 2.16503 0.452242 2.21128 0.592593 2.21128H4.2729C4.49123 2.21128 4.70955 2.27295 4.89669 2.4117C5.08382 2.53504 5.22417 2.72004 5.30214 2.92046L7.06433 7.57638C4.17934 8.71724 2.15205 11.5077 2.15205 14.7607C2.15205 19.0466 5.66082 22.5 9.98051 22.5C14.1442 22.5 17.5595 19.2779 17.809 15.2232H20.4289V17.2582C19.384 17.6282 18.6355 18.5995 18.6355 19.7558C18.6355 21.2204 19.8363 22.4075 21.3177 22.4075C22.7992 22.4075 24 21.2204 24 19.7558C24 18.5841 23.2359 17.5974 22.1598 17.2428ZM7.57895 8.34723C7.64133 8.3164 7.7193 8.30098 7.78168 8.27015C7.85965 8.23931 7.93762 8.2239 8.01559 8.19306C8.07797 8.17765 8.15595 8.16223 8.21832 8.13139C8.37427 8.08514 8.53021 8.05431 8.70175 8.02348C8.74854 8.00806 8.81092 8.00806 8.8577 7.99264C8.92008 7.97722 8.98246 7.97723 9.04483 7.96181C9.20078 7.94639 9.34113 7.93097 9.49708 7.91556C9.55945 7.91556 9.60624 7.90014 9.66862 7.90014C9.76218 7.90014 9.87135 7.90014 9.96491 7.90014C11.1033 7.90014 12.1949 8.17765 13.1462 8.65557L12.1637 10.151L10.6979 12.3094L10.3548 12.8182C10.23 12.8027 10.1209 12.7873 9.98051 12.7873C9.77778 12.7873 9.59064 12.8181 9.40351 12.8644L8.93567 12.1706L8.62378 11.7081L7.37622 8.4089C7.45419 8.39348 7.51657 8.36265 7.57895 8.34723ZM11.3684 13.3423L12.9591 10.151L13.5828 8.90224C14.1442 9.24142 14.6589 9.65767 15.1111 10.151C16.1871 11.3073 16.8577 12.849 16.9045 14.5294L11.8986 14.2057C11.8051 13.8665 11.6179 13.5736 11.3684 13.3423ZM6.23782 9.01016L8.46784 13.4965C8.2963 13.6969 8.15595 13.9436 8.07797 14.2057L3.07212 14.5294C3.1501 12.2169 4.38207 10.1819 6.23782 9.01016ZM3.07212 14.9765L8.07797 15.3157C8.17154 15.6395 8.34308 15.917 8.577 16.1482L6.36257 20.5883C4.44444 19.4166 3.1501 17.3507 3.07212 14.9765ZM9.98051 21.6058C8.81092 21.6058 7.7193 21.3283 6.75244 20.8196L9.55945 16.6878C9.69981 16.7186 9.84016 16.7341 9.98051 16.7341C10.1365 16.7341 10.2924 16.7186 10.4483 16.6724L13.2398 20.7887C12.2729 21.3129 11.1657 21.6058 9.98051 21.6058ZM16.8421 15.6395C16.8421 15.7011 16.8265 15.7474 16.8109 15.809C16.8109 15.8245 16.8109 15.8553 16.7953 15.8707C16.7797 15.917 16.7797 15.9632 16.7641 16.0095C16.7641 16.0403 16.7485 16.0557 16.7485 16.0865C16.7329 16.1328 16.7329 16.179 16.7173 16.2253C16.7173 16.2407 16.7173 16.2561 16.7018 16.2715C16.6862 16.3332 16.6706 16.4103 16.655 16.472C16.655 16.4874 16.6394 16.5182 16.6394 16.5336C16.6238 16.5645 16.6238 16.5953 16.6082 16.6261C16.5926 16.657 16.5926 16.6878 16.577 16.7186C16.5458 16.8111 16.5302 16.8882 16.4834 16.9807C16.4522 17.0732 16.4211 17.1503 16.3899 17.2428C16.3743 17.2891 16.3431 17.3507 16.3275 17.397C16.3275 17.397 16.3275 17.397 16.3275 17.4124C16.2963 17.4741 16.2651 17.5512 16.2339 17.6128C16.2183 17.6437 16.2183 17.6591 16.2027 17.6899C16.1871 17.7207 16.1871 17.7362 16.1715 17.767C16.1715 17.767 16.1715 17.7824 16.1559 17.7824C16.1404 17.8287 16.1092 17.8595 16.0936 17.9057C16.078 17.952 16.0468 17.9828 16.0312 18.0291C16 18.0753 15.9844 18.1216 15.9532 18.1678C15.922 18.2141 15.8908 18.2603 15.8596 18.322C15.8129 18.3991 15.7505 18.4916 15.7037 18.5687C15.6569 18.6303 15.6101 18.7074 15.5634 18.7691C15.5478 18.7845 15.5322 18.8153 15.5166 18.8308C15.5166 18.8462 15.501 18.8462 15.501 18.8616C15.4698 18.9078 15.4386 18.9387 15.4074 18.9849C15.4074 18.9849 15.4074 19.0004 15.3918 19.0004C15.3294 19.0929 15.2515 19.1699 15.1735 19.2624C15.1267 19.3087 15.0955 19.3549 15.0487 19.4012C14.9552 19.5091 14.846 19.617 14.7368 19.7095C14.6901 19.7558 14.6433 19.7866 14.6121 19.8329C14.5497 19.8791 14.4873 19.9408 14.4405 19.987C14.3938 20.0333 14.347 20.0641 14.3002 20.095C14.2378 20.1412 14.191 20.1875 14.1287 20.2337C13.9571 20.357 13.7856 20.4804 13.5984 20.6037L11.384 16.1482C11.6023 15.917 11.7583 15.6549 11.8519 15.3465L13.2086 15.254H16.8421C16.8733 15.3619 16.8733 15.5007 16.8421 15.6395ZM16.2807 10.151C14.8616 8.23931 12.5692 7.00596 9.98051 7.00596C9.55945 7.00596 9.1384 7.03679 8.73294 7.09846L8.60819 6.75928H16.8577C17.7778 6.75928 18.6823 7.09846 19.384 7.79222C20.039 8.43973 20.3821 9.28767 20.4289 10.1356H16.2807V10.151ZM21.3177 21.6521C20.2729 21.6521 19.4152 20.8041 19.4152 19.7712C19.4152 19.0466 19.8207 18.4299 20.4289 18.1062C20.694 17.9674 20.9903 17.8903 21.3177 17.8903C21.614 17.8903 21.9103 17.9674 22.1598 18.0907C22.7836 18.3991 23.2203 19.0312 23.2203 19.7712C23.2203 20.8041 22.3626 21.6521 21.3177 21.6521Z" fill="white"/>
</svg>
