<svg width="13" height="25" viewBox="0 0 13 25" fill="none" xmlns="http://www.w3.org/2000/svg">
<path d="M11.9192 10.7881C10.4783 6.70262 7.90961 3.51034 4.85539 0.698484L4.69876 0.5C3.72768 3.87422 2.38069 7.06651 1.26864 10.3911C0.0469556 14.0465 -0.971117 18.7274 1.5819 22.0355C3.82165 24.9466 8.16021 25.3766 10.7759 22.7633C13.8301 19.7199 13.2506 14.5262 11.9192 10.7881ZM11.0108 17.7516C10.9325 18.7605 10.2747 21.1754 9.74214 18.9921C9.22527 16.8915 9.53852 14.5427 9.30358 12.3925C9.06864 10.0768 8.36382 7.87698 7.62768 5.69366C7.72166 5.89214 11.4024 13.021 11.0108 17.7516Z" fill="#828282"/>
</svg>
