<svg width="20" height="25" viewBox="0 0 20 25" fill="none" xmlns="http://www.w3.org/2000/svg">
<path d="M8.13025 24.4109C7.87287 24.2773 7.75175 23.9656 7.76689 23.6094C7.76689 23.2532 7.88801 22.8376 8.11511 22.4517C8.11511 22.4517 8.38763 22.0213 8.76613 21.3088C9.14463 20.5964 9.62911 19.6168 9.97733 18.5185C10.3407 17.435 10.5375 16.2328 10.4315 15.2235C10.3407 14.1994 9.94705 13.4127 9.61397 12.9378C9.52313 12.819 9.41715 12.6855 9.29603 12.537L9.08407 12.2996C8.97809 12.1957 8.87211 12.0621 8.78127 11.9285C8.38763 11.409 8.11511 10.7263 7.99399 10.0287C7.73661 8.61866 8.02427 7.17896 8.38763 5.94705C8.75099 4.70029 9.23547 3.61681 9.59883 2.83016C9.97733 2.05837 10.2347 1.58341 10.2347 1.58341C10.7041 0.722558 11.5519 0.292131 12.0364 0.618662C12.5209 0.93035 12.5209 1.77636 12.0818 2.57785C12.0969 2.57785 11.0371 4.15113 10.265 6.14C9.88649 7.13443 9.58369 8.23276 9.58369 9.19751C9.56855 10.1623 9.90163 10.9044 10.265 11.2754L10.477 11.4981C10.5527 11.5871 10.6435 11.6762 10.7192 11.7801C10.8857 11.9879 11.0523 12.2105 11.2188 12.4777C11.5368 12.9971 11.8244 13.6205 11.991 14.3181C12.3392 15.7281 12.2029 17.3014 11.8698 18.6817C11.5368 20.0621 11.022 21.2643 10.6284 22.1252C10.2196 22.986 9.93191 23.5055 9.94705 23.5055C9.70481 23.9211 9.37173 24.2328 9.03865 24.396C8.70557 24.5296 8.38763 24.5445 8.13025 24.4109Z" fill="#828282"/>
<path d="M9.08685 7.24086L8.7627 7.81137L11.5006 9.30638L11.8247 8.73587L9.08685 7.24086Z" fill="#828282"/>
<path d="M12.2825 8.98292L11.9583 9.55344L14.22 10.7884L14.5442 10.2179L12.2825 8.98292Z" fill="#828282"/>
<path d="M10.302 5.10364L9.97809 5.67429L12.6107 7.11063L12.9347 6.53999L10.302 5.10364Z" fill="#828282"/>
<path d="M13.448 6.81436L13.124 7.38501L15.4392 8.64839L15.7632 8.07774L13.448 6.81436Z" fill="#828282"/>
<path d="M11.4606 3.07017L11.1364 3.64069L13.7685 5.07792L14.0926 4.5074L11.4606 3.07017Z" fill="#828282"/>
<path d="M14.6527 4.81169L14.3286 5.3822L17.0796 6.88443L17.4038 6.31392L14.6527 4.81169Z" fill="#828282"/>
<path d="M3.17364 17.6505L2.84949 18.221L5.93123 19.9038L6.25538 19.3333L3.17364 17.6505Z" fill="#828282"/>
<path d="M6.80346 19.5872L6.47931 20.1577L9.56105 21.8405L9.8852 21.27L6.80346 19.5872Z" fill="#828282"/>
<path d="M4.39068 15.5127L4.06653 16.0832L7.25408 17.8238L7.57823 17.2533L4.39068 15.5127Z" fill="#828282"/>
<path d="M7.98479 17.5101L7.66071 18.0807L10.8486 19.8209L11.1727 19.2503L7.98479 17.5101Z" fill="#828282"/>
<path d="M5.54967 13.4804L5.22559 14.0509L8.26799 15.7117L8.59208 15.1411L5.54967 13.4804Z" fill="#828282"/>
<path d="M9.04858 15.3475L8.72449 15.918L11.7669 17.5788L12.091 17.0082L9.04858 15.3475Z" fill="#828282"/>
<path d="M0.696431 20.5667C0.36335 20.3738 0.121109 20.0769 0.0302686 19.6762C-0.0605717 19.2903 -1.14664e-05 18.8302 0.242229 18.3997C0.242229 18.3997 0.51475 17.9099 0.984092 17.1678C1.46857 16.4257 2.16501 15.4164 3.08856 14.422C4.0121 13.4276 5.17788 12.448 6.47993 11.8543C7.13095 11.5574 7.79711 11.3496 8.40271 11.2606C9.00832 11.1567 9.55336 11.1567 9.99242 11.1715C10.2195 11.1864 10.4618 11.2161 10.7343 11.2458L11.0976 11.3051C11.1733 11.32 11.249 11.32 11.3247 11.3348C11.6275 11.3496 12.006 11.2903 12.3997 11.1122C13.2172 10.7708 14.1257 9.98416 14.8524 9.13814C16.3361 7.41644 17.2445 5.59083 17.2596 5.60568C17.7138 4.83388 18.592 4.46282 19.3035 4.78935C20.0151 5.11588 20.2271 6.12516 19.7275 6.97117C19.7123 6.97117 18.6677 8.67803 17.0023 10.4443C16.1696 11.32 15.1703 12.2105 14.0197 12.8042C13.4443 13.101 12.8539 13.3088 12.2634 13.3979C11.6881 13.4869 11.1431 13.4573 10.7191 13.383L10.4163 13.3237C10.3255 13.3088 10.2347 13.294 10.1287 13.2791C9.93186 13.2643 9.7199 13.2495 9.4928 13.2643C9.0386 13.294 8.52384 13.383 8.02421 13.5908C6.99469 13.9916 5.99545 14.8227 5.20816 15.7578C4.40574 16.6929 3.80014 17.7022 3.39136 18.4443C2.98258 19.2012 2.75548 19.7059 2.75548 19.691C2.54352 20.0918 2.21044 20.3738 1.83193 20.537C1.45343 20.73 1.04465 20.7597 0.696431 20.5667Z" fill="#828282"/>
</svg>
