<svg width="24" height="22" viewBox="0 0 24 22" fill="none" xmlns="http://www.w3.org/2000/svg">
<g clip-path="url(#clip0)">
<path d="M20.2455 0.5H3.75451C1.67509 0.5 0 1.96269 0 3.78358V18.2164C0 20.0224 1.67509 21.5 3.75451 21.5H20.2455C22.3105 21.5 24 20.0373 24 18.2164V3.78358C24 1.96269 22.3249 0.5 20.2455 0.5ZM20.3899 15.709C20.3899 16.8881 19.2202 17.8582 17.7762 17.8582H6.23827C4.79422 17.8582 3.62455 16.903 3.62455 15.709V10.9627H6.93141L8.70758 8.5597V15.9925L11.1769 10.1567L11.8267 13.3657L14.9025 7.57463V16.3209L16.7942 10.1269H20.3755V15.709H20.3899ZM20.3899 9.75373H16.5487L15.2635 13.9478V6.15672L11.9856 12.3358L11.3069 8.97761L9.05415 14.2612V7.5L6.74368 10.6045H3.61011V6.29105C3.61011 5.11194 4.77978 4.14179 6.22383 4.14179H17.7617C19.2058 4.14179 20.3755 5.09701 20.3755 6.29105V9.75373H20.3899Z" fill="#828282"/>
</g>
<defs>
<clipPath id="clip0">
<rect width="24" height="21" fill="white" transform="translate(0 0.5)"/>
</clipPath>
</defs>
</svg>
