<svg width="44" height="44" viewBox="0 0 44 44" fill="none" xmlns="http://www.w3.org/2000/svg">
<circle cx="22" cy="22" r="22" fill="#F4F4F4"/>
<rect opacity="0.01" x="10" y="10" width="24" height="24" fill="#D8D8D8"/>
<path opacity="0.8" fill-rule="evenodd" clip-rule="evenodd" d="M31.005 16.0567C31.6042 16.6683 31.8 18.0558 31.8 18.0558C31.8 18.0558 32 19.6863 32 21.3158V22.8442C32 24.4746 31.8 26.1038 31.8 26.1038C31.8 26.1038 31.6046 27.4917 31.005 28.1029C30.3194 28.8261 29.5596 28.9006 29.1301 28.9427C29.083 28.9474 29.0399 28.9516 29.0012 28.9563C26.2025 29.1604 22 29.1667 22 29.1667C22 29.1667 16.8 29.1187 15.2 28.9642C15.1242 28.9499 15.0324 28.9388 14.9283 28.9262C14.4216 28.8649 13.6262 28.7687 12.9946 28.1029C12.395 27.4917 12.2 26.1038 12.2 26.1038C12.2 26.1038 12 24.4742 12 22.8442V21.3158C12 19.6863 12.2 18.0558 12.2 18.0558C12.2 18.0558 12.395 16.6679 12.9946 16.0567C13.6818 15.3322 14.4427 15.2587 14.8721 15.2172C14.9183 15.2128 14.9607 15.2087 14.9987 15.2042C17.7975 15 21.9954 15 21.9954 15H22.0046C22.0046 15 26.2025 15 29.0012 15.2037C29.0396 15.2083 29.0823 15.2125 29.129 15.217C29.5583 15.2588 30.3188 15.3329 31.005 16.0567ZM19.9342 19.0367L19.935 24.6958L25.3383 21.8758L19.9342 19.0367Z" fill="#0DB88E"/>
</svg>
